<mxfile host="Electron" agent="Mozilla/5.0 (Windows NT 10.0; Win64; x64) AppleWebKit/537.36 (KHTML, like Gecko) draw.io/28.1.2 Chrome/138.0.7204.243 Electron/37.4.0 Safari/537.36" version="28.1.2">
  <diagram name="Page-1" id="p3i6pBx7H9vX1FOJdrCt">
    <mxGraphModel dx="463" dy="278" grid="1" gridSize="10" guides="1" tooltips="1" connect="1" arrows="1" fold="1" page="1" pageScale="1" pageWidth="850" pageHeight="1100" math="0" shadow="0">
      <root>
        <mxCell id="0" />
        <mxCell id="1" parent="0" />
        <mxCell id="FhinJ58jHfH75TcgasUs-1" value="Content Creator" style="points=[[0.35,0,0],[0.98,0.51,0],[1,0.71,0],[0.67,1,0],[0,0.795,0],[0,0.65,0]];verticalLabelPosition=bottom;sketch=0;html=1;verticalAlign=top;aspect=fixed;align=center;pointerEvents=1;shape=mxgraph.cisco19.user;fillColor=#005073;strokeColor=none;" vertex="1" parent="1">
          <mxGeometry x="253.95" y="30" width="60" height="60" as="geometry" />
        </mxCell>
        <mxCell id="FhinJ58jHfH75TcgasUs-2" value="Web Application" style="aspect=fixed;sketch=0;html=1;dashed=0;whitespace=wrap;verticalLabelPosition=bottom;verticalAlign=top;fillColor=#2875E2;strokeColor=#ffffff;points=[[0.005,0.63,0],[0.1,0.2,0],[0.9,0.2,0],[0.5,0,0],[0.995,0.63,0],[0.72,0.99,0],[0.5,1,0],[0.28,0.99,0]];shape=mxgraph.kubernetes.icon2;prIcon=hpa" vertex="1" parent="1">
          <mxGeometry x="257.09" y="200" width="72.91" height="70" as="geometry" />
        </mxCell>
        <mxCell id="FhinJ58jHfH75TcgasUs-51" style="edgeStyle=orthogonalEdgeStyle;rounded=0;orthogonalLoop=1;jettySize=auto;html=1;exitX=0.005;exitY=0.63;exitDx=0;exitDy=0;exitPerimeter=0;entryX=0;entryY=0.79;entryDx=0;entryDy=0;entryPerimeter=0;" edge="1" parent="1" source="FhinJ58jHfH75TcgasUs-4" target="FhinJ58jHfH75TcgasUs-26">
          <mxGeometry relative="1" as="geometry">
            <Array as="points">
              <mxPoint x="90" y="404" />
              <mxPoint x="90" y="1074" />
            </Array>
          </mxGeometry>
        </mxCell>
        <mxCell id="FhinJ58jHfH75TcgasUs-4" value="API Gateway" style="aspect=fixed;sketch=0;html=1;dashed=0;whitespace=wrap;verticalLabelPosition=bottom;verticalAlign=top;fillColor=#2875E2;strokeColor=#ffffff;points=[[0.005,0.63,0],[0.1,0.2,0],[0.9,0.2,0],[0.5,0,0],[0.995,0.63,0],[0.72,0.99,0],[0.5,1,0],[0.28,0.99,0]];shape=mxgraph.kubernetes.icon2;prIcon=ep" vertex="1" parent="1">
          <mxGeometry x="257.09000000000003" y="360" width="72.92" height="70" as="geometry" />
        </mxCell>
        <mxCell id="FhinJ58jHfH75TcgasUs-30" style="edgeStyle=orthogonalEdgeStyle;rounded=0;orthogonalLoop=1;jettySize=auto;html=1;exitX=0.005;exitY=0.63;exitDx=0;exitDy=0;exitPerimeter=0;" edge="1" parent="1" source="FhinJ58jHfH75TcgasUs-5" target="FhinJ58jHfH75TcgasUs-6">
          <mxGeometry relative="1" as="geometry" />
        </mxCell>
        <mxCell id="FhinJ58jHfH75TcgasUs-5" value="Orchestration Service" style="aspect=fixed;sketch=0;html=1;dashed=0;whitespace=wrap;verticalLabelPosition=bottom;verticalAlign=top;fillColor=#2875E2;strokeColor=#ffffff;points=[[0.005,0.63,0],[0.1,0.2,0],[0.9,0.2,0],[0.5,0,0],[0.995,0.63,0],[0.72,0.99,0],[0.5,1,0],[0.28,0.99,0]];shape=mxgraph.kubernetes.icon2;prIcon=hpa" vertex="1" parent="1">
          <mxGeometry x="413.33" y="480" width="72.92" height="70" as="geometry" />
        </mxCell>
        <mxCell id="FhinJ58jHfH75TcgasUs-6" value="Metadata DB (PostgreSQL)" style="sketch=0;outlineConnect=0;fontColor=#232F3E;gradientColor=none;fillColor=#C925D1;strokeColor=none;dashed=0;verticalLabelPosition=bottom;verticalAlign=top;align=center;html=1;fontSize=12;fontStyle=0;aspect=fixed;pointerEvents=1;shape=mxgraph.aws4.rds_multi_az_db_cluster;" vertex="1" parent="1">
          <mxGeometry x="130" y="600" width="90" height="90" as="geometry" />
        </mxCell>
        <mxCell id="FhinJ58jHfH75TcgasUs-7" value="JobQueue (RabbitMQ)" style="verticalLabelPosition=bottom;html=1;verticalAlign=top;align=center;strokeColor=none;fillColor=#00BEF2;shape=mxgraph.azure.queue_generic;pointerEvents=1;" vertex="1" parent="1">
          <mxGeometry x="620" y="504" width="133.34" height="40" as="geometry" />
        </mxCell>
        <mxCell id="FhinJ58jHfH75TcgasUs-8" value="Notification Service" style="aspect=fixed;sketch=0;html=1;dashed=0;whitespace=wrap;verticalLabelPosition=bottom;verticalAlign=top;fillColor=#2875E2;strokeColor=#ffffff;points=[[0.005,0.63,0],[0.1,0.2,0],[0.9,0.2,0],[0.5,0,0],[0.995,0.63,0],[0.72,0.99,0],[0.5,1,0],[0.28,0.99,0]];shape=mxgraph.kubernetes.icon2;prIcon=hpa" vertex="1" parent="1">
          <mxGeometry x="486.25" y="290" width="72.92" height="70" as="geometry" />
        </mxCell>
        <mxCell id="FhinJ58jHfH75TcgasUs-13" value="" style="group" vertex="1" connectable="0" parent="1">
          <mxGeometry x="500" y="640" width="83.33" height="80" as="geometry" />
        </mxCell>
        <mxCell id="FhinJ58jHfH75TcgasUs-11" value="GPU Worker Pool" style="aspect=fixed;sketch=0;html=1;dashed=0;whitespace=wrap;verticalLabelPosition=bottom;verticalAlign=top;fillColor=#2875E2;strokeColor=#ffffff;points=[[0.005,0.63,0],[0.1,0.2,0],[0.9,0.2,0],[0.5,0,0],[0.995,0.63,0],[0.72,0.99,0],[0.5,1,0],[0.28,0.99,0]];shape=mxgraph.kubernetes.icon2;prIcon=hpa" vertex="1" parent="FhinJ58jHfH75TcgasUs-13">
          <mxGeometry width="83.32780001952935" height="80" as="geometry" />
        </mxCell>
        <mxCell id="FhinJ58jHfH75TcgasUs-9" value="" style="editableCssRules=.*;html=1;shape=image;verticalLabelPosition=bottom;labelBackgroundColor=#ffffff;verticalAlign=top;aspect=fixed;imageAspect=0;image=data:image/svg+xml,PHN2ZyB4bWxucz0iaHR0cDovL3d3dy53My5vcmcvMjAwMC9zdmciIHhtbG5zOnY9Imh0dHBzOi8vdmVjdGEuaW8vbmFubyIgd2lkdGg9IjIwIiBoZWlnaHQ9IjIwIiB2aWV3Qm94PSIwIDAgMjAgMjAiIHN0eWxlPSJjb2xvci1zY2hlbWU6IGxpZ2h0IGRhcms7Ij4mI3hhOwk8c3R5bGUgdHlwZT0idGV4dC9jc3MiPi5zdDAgeyBmaWxsOiBsaWdodC1kYXJrKHJnYigyNTUsIDI1NSwgMjU1KSwgcmdiKDE4LCAxOCwgMTgpKTsgfSA8L3N0eWxlPiYjeGE7CTxwYXRoIGNsYXNzPSJzdDAiIGQ9Ik0xMy4zMyAwdjIuMzhoLTIuMTZWMEg4LjgzdjIuMzhINi42N1YwSDQuMjl2Mi4zOGEyIDIgMCAwIDAtMS45MSAxLjkxSDB2Mi4zOGgyLjM4djIuMTRIMHYyLjM4aDIuMzh2Mi4xNEgwdjIuMzhoMi4zOGEyIDIgMCAwIDAgMS45MSAxLjkxVjIwaDIuMzh2LTIuMzhoMi4xNlYyMGgyLjM0di0yLjM4aDIuMTZWMjBoMi4zOHYtMi4zOGEyIDIgMCAwIDAgMS45MS0xLjkxSDIwdi0yLjM4aC0yLjM4di0yLjE0SDIwVjguODFoLTIuMzhWNi42N0gyMFY0LjI5aC0yLjM4YTIgMiAwIDAgMC0xLjkxLTEuOTFWMHptMS41MyAxNS4yNEg1LjE0YS4zOC4zOCAwIDAgMS0uMzgtLjM4VjUuMTRhLjM4LjM4IDAgMCAxIC4zOC0uMzhoOS43MmEuMzguMzggMCAwIDEgLjM4LjM4djkuNzJhLjM4LjM4IDAgMCAxLS4zOC4zOHptLTIuMDctNi4xMmwtMy41IDQuODZ2LTMuNjNINy4yMmwzLjYxLTQuODF2My41OHoiLz4mI3hhOzwvc3ZnPg==;imageBackground=#00FF00;" vertex="1" parent="FhinJ58jHfH75TcgasUs-13">
          <mxGeometry x="36.723945814193314" y="30.78605604921394" width="23.43521140513622" height="23.43521140513622" as="geometry" />
        </mxCell>
        <mxCell id="FhinJ58jHfH75TcgasUs-14" value="" style="group" vertex="1" connectable="0" parent="1">
          <mxGeometry x="230.62" y="800" width="83.33" height="80" as="geometry" />
        </mxCell>
        <mxCell id="FhinJ58jHfH75TcgasUs-15" value="Transcription Service" style="aspect=fixed;sketch=0;html=1;dashed=0;whitespace=wrap;verticalLabelPosition=bottom;verticalAlign=top;fillColor=#2875E2;strokeColor=#ffffff;points=[[0.005,0.63,0],[0.1,0.2,0],[0.9,0.2,0],[0.5,0,0],[0.995,0.63,0],[0.72,0.99,0],[0.5,1,0],[0.28,0.99,0]];shape=mxgraph.kubernetes.icon2;prIcon=hpa" vertex="1" parent="FhinJ58jHfH75TcgasUs-14">
          <mxGeometry width="83.32571428571431" height="79.9979975625762" as="geometry" />
        </mxCell>
        <mxCell id="FhinJ58jHfH75TcgasUs-16" value="" style="editableCssRules=.*;html=1;shape=image;verticalLabelPosition=bottom;labelBackgroundColor=#ffffff;verticalAlign=top;aspect=fixed;imageAspect=0;image=data:image/svg+xml,PHN2ZyB4bWxucz0iaHR0cDovL3d3dy53My5vcmcvMjAwMC9zdmciIHhtbG5zOnY9Imh0dHBzOi8vdmVjdGEuaW8vbmFubyIgd2lkdGg9IjIwIiBoZWlnaHQ9IjIwIiB2aWV3Qm94PSIwIDAgMjAgMjAiIHN0eWxlPSJjb2xvci1zY2hlbWU6IGxpZ2h0IGRhcms7Ij4mI3hhOwk8c3R5bGUgdHlwZT0idGV4dC9jc3MiPi5zdDAgeyBmaWxsOiBsaWdodC1kYXJrKHJnYigyNTUsIDI1NSwgMjU1KSwgcmdiKDE4LCAxOCwgMTgpKTsgfSA8L3N0eWxlPiYjeGE7CTxwYXRoIGNsYXNzPSJzdDAiIGQ9Ik0xMy4zMyAwdjIuMzhoLTIuMTZWMEg4LjgzdjIuMzhINi42N1YwSDQuMjl2Mi4zOGEyIDIgMCAwIDAtMS45MSAxLjkxSDB2Mi4zOGgyLjM4djIuMTRIMHYyLjM4aDIuMzh2Mi4xNEgwdjIuMzhoMi4zOGEyIDIgMCAwIDAgMS45MSAxLjkxVjIwaDIuMzh2LTIuMzhoMi4xNlYyMGgyLjM0di0yLjM4aDIuMTZWMjBoMi4zOHYtMi4zOGEyIDIgMCAwIDAgMS45MS0xLjkxSDIwdi0yLjM4aC0yLjM4di0yLjE0SDIwVjguODFoLTIuMzhWNi42N0gyMFY0LjI5aC0yLjM4YTIgMiAwIDAgMC0xLjkxLTEuOTFWMHptMS41MyAxNS4yNEg1LjE0YS4zOC4zOCAwIDAgMS0uMzgtLjM4VjUuMTRhLjM4LjM4IDAgMCAxIC4zOC0uMzhoOS43MmEuMzguMzggMCAwIDEgLjM4LjM4djkuNzJhLjM4LjM4IDAgMCAxLS4zOC4zOHptLTIuMDctNi4xMmwtMy41IDQuODZ2LTMuNjNINy4yMmwzLjYxLTQuODF2My41OHoiLz4mI3hhOzwvc3ZnPg==;imageBackground=#00FF00;" vertex="1" parent="FhinJ58jHfH75TcgasUs-14">
          <mxGeometry x="36.72394581419332" y="30.78605604921394" width="23.43462481083181" height="23.43462481083181" as="geometry" />
        </mxCell>
        <mxCell id="FhinJ58jHfH75TcgasUs-17" value="" style="group" vertex="1" connectable="0" parent="1">
          <mxGeometry x="402.91999999999996" y="800" width="83.33" height="80" as="geometry" />
        </mxCell>
        <mxCell id="FhinJ58jHfH75TcgasUs-18" value="Translation Service" style="aspect=fixed;sketch=0;html=1;dashed=0;whitespace=wrap;verticalLabelPosition=bottom;verticalAlign=top;fillColor=#2875E2;strokeColor=#ffffff;points=[[0.005,0.63,0],[0.1,0.2,0],[0.9,0.2,0],[0.5,0,0],[0.995,0.63,0],[0.72,0.99,0],[0.5,1,0],[0.28,0.99,0]];shape=mxgraph.kubernetes.icon2;prIcon=hpa" vertex="1" parent="FhinJ58jHfH75TcgasUs-17">
          <mxGeometry width="83.32571428571431" height="79.9979975625762" as="geometry" />
        </mxCell>
        <mxCell id="FhinJ58jHfH75TcgasUs-19" value="" style="editableCssRules=.*;html=1;shape=image;verticalLabelPosition=bottom;labelBackgroundColor=#ffffff;verticalAlign=top;aspect=fixed;imageAspect=0;image=data:image/svg+xml,PHN2ZyB4bWxucz0iaHR0cDovL3d3dy53My5vcmcvMjAwMC9zdmciIHhtbG5zOnY9Imh0dHBzOi8vdmVjdGEuaW8vbmFubyIgd2lkdGg9IjIwIiBoZWlnaHQ9IjIwIiB2aWV3Qm94PSIwIDAgMjAgMjAiIHN0eWxlPSJjb2xvci1zY2hlbWU6IGxpZ2h0IGRhcms7Ij4mI3hhOwk8c3R5bGUgdHlwZT0idGV4dC9jc3MiPi5zdDAgeyBmaWxsOiBsaWdodC1kYXJrKHJnYigyNTUsIDI1NSwgMjU1KSwgcmdiKDE4LCAxOCwgMTgpKTsgfSA8L3N0eWxlPiYjeGE7CTxwYXRoIGNsYXNzPSJzdDAiIGQ9Ik0xMy4zMyAwdjIuMzhoLTIuMTZWMEg4LjgzdjIuMzhINi42N1YwSDQuMjl2Mi4zOGEyIDIgMCAwIDAtMS45MSAxLjkxSDB2Mi4zOGgyLjM4djIuMTRIMHYyLjM4aDIuMzh2Mi4xNEgwdjIuMzhoMi4zOGEyIDIgMCAwIDAgMS45MSAxLjkxVjIwaDIuMzh2LTIuMzhoMi4xNlYyMGgyLjM0di0yLjM4aDIuMTZWMjBoMi4zOHYtMi4zOGEyIDIgMCAwIDAgMS45MS0xLjkxSDIwdi0yLjM4aC0yLjM4di0yLjE0SDIwVjguODFoLTIuMzhWNi42N0gyMFY0LjI5aC0yLjM4YTIgMiAwIDAgMC0xLjkxLTEuOTFWMHptMS41MyAxNS4yNEg1LjE0YS4zOC4zOCAwIDAgMS0uMzgtLjM4VjUuMTRhLjM4LjM4IDAgMCAxIC4zOC0uMzhoOS43MmEuMzguMzggMCAwIDEgLjM4LjM4djkuNzJhLjM4LjM4IDAgMCAxLS4zOC4zOHptLTIuMDctNi4xMmwtMy41IDQuODZ2LTMuNjNINy4yMmwzLjYxLTQuODF2My41OHoiLz4mI3hhOzwvc3ZnPg==;imageBackground=#00FF00;" vertex="1" parent="FhinJ58jHfH75TcgasUs-17">
          <mxGeometry x="36.72394581419332" y="30.78605604921394" width="23.43462481083181" height="23.43462481083181" as="geometry" />
        </mxCell>
        <mxCell id="FhinJ58jHfH75TcgasUs-20" value="" style="group" vertex="1" connectable="0" parent="1">
          <mxGeometry x="600" y="800" width="83.33" height="80" as="geometry" />
        </mxCell>
        <mxCell id="FhinJ58jHfH75TcgasUs-21" value="Dubbing Service&lt;div&gt;(Voice Cloning / TTS)&lt;/div&gt;" style="aspect=fixed;sketch=0;html=1;dashed=0;whitespace=wrap;verticalLabelPosition=bottom;verticalAlign=top;fillColor=#2875E2;strokeColor=#ffffff;points=[[0.005,0.63,0],[0.1,0.2,0],[0.9,0.2,0],[0.5,0,0],[0.995,0.63,0],[0.72,0.99,0],[0.5,1,0],[0.28,0.99,0]];shape=mxgraph.kubernetes.icon2;prIcon=hpa" vertex="1" parent="FhinJ58jHfH75TcgasUs-20">
          <mxGeometry width="83.32571428571431" height="79.9979975625762" as="geometry" />
        </mxCell>
        <mxCell id="FhinJ58jHfH75TcgasUs-22" value="" style="editableCssRules=.*;html=1;shape=image;verticalLabelPosition=bottom;labelBackgroundColor=#ffffff;verticalAlign=top;aspect=fixed;imageAspect=0;image=data:image/svg+xml,PHN2ZyB4bWxucz0iaHR0cDovL3d3dy53My5vcmcvMjAwMC9zdmciIHhtbG5zOnY9Imh0dHBzOi8vdmVjdGEuaW8vbmFubyIgd2lkdGg9IjIwIiBoZWlnaHQ9IjIwIiB2aWV3Qm94PSIwIDAgMjAgMjAiIHN0eWxlPSJjb2xvci1zY2hlbWU6IGxpZ2h0IGRhcms7Ij4mI3hhOwk8c3R5bGUgdHlwZT0idGV4dC9jc3MiPi5zdDAgeyBmaWxsOiBsaWdodC1kYXJrKHJnYigyNTUsIDI1NSwgMjU1KSwgcmdiKDE4LCAxOCwgMTgpKTsgfSA8L3N0eWxlPiYjeGE7CTxwYXRoIGNsYXNzPSJzdDAiIGQ9Ik0xMy4zMyAwdjIuMzhoLTIuMTZWMEg4LjgzdjIuMzhINi42N1YwSDQuMjl2Mi4zOGEyIDIgMCAwIDAtMS45MSAxLjkxSDB2Mi4zOGgyLjM4djIuMTRIMHYyLjM4aDIuMzh2Mi4xNEgwdjIuMzhoMi4zOGEyIDIgMCAwIDAgMS45MSAxLjkxVjIwaDIuMzh2LTIuMzhoMi4xNlYyMGgyLjM0di0yLjM4aDIuMTZWMjBoMi4zOHYtMi4zOGEyIDIgMCAwIDAgMS45MS0xLjkxSDIwdi0yLjM4aC0yLjM4di0yLjE0SDIwVjguODFoLTIuMzhWNi42N0gyMFY0LjI5aC0yLjM4YTIgMiAwIDAgMC0xLjkxLTEuOTFWMHptMS41MyAxNS4yNEg1LjE0YS4zOC4zOCAwIDAgMS0uMzgtLjM4VjUuMTRhLjM4LjM4IDAgMCAxIC4zOC0uMzhoOS43MmEuMzguMzggMCAwIDEgLjM4LjM4djkuNzJhLjM4LjM4IDAgMCAxLS4zOC4zOHptLTIuMDctNi4xMmwtMy41IDQuODZ2LTMuNjNINy4yMmwzLjYxLTQuODF2My41OHoiLz4mI3hhOzwvc3ZnPg==;imageBackground=#00FF00;" vertex="1" parent="FhinJ58jHfH75TcgasUs-20">
          <mxGeometry x="36.72394581419332" y="30.78605604921394" width="23.43462481083181" height="23.43462481083181" as="geometry" />
        </mxCell>
        <mxCell id="FhinJ58jHfH75TcgasUs-23" value="" style="group" vertex="1" connectable="0" parent="1">
          <mxGeometry x="753.34" y="800" width="83.33" height="80" as="geometry" />
        </mxCell>
        <mxCell id="FhinJ58jHfH75TcgasUs-24" value="Lip Sync Service" style="aspect=fixed;sketch=0;html=1;dashed=0;whitespace=wrap;verticalLabelPosition=bottom;verticalAlign=top;fillColor=#2875E2;strokeColor=#ffffff;points=[[0.005,0.63,0],[0.1,0.2,0],[0.9,0.2,0],[0.5,0,0],[0.995,0.63,0],[0.72,0.99,0],[0.5,1,0],[0.28,0.99,0]];shape=mxgraph.kubernetes.icon2;prIcon=hpa" vertex="1" parent="FhinJ58jHfH75TcgasUs-23">
          <mxGeometry width="83.32571428571431" height="79.9979975625762" as="geometry" />
        </mxCell>
        <mxCell id="FhinJ58jHfH75TcgasUs-25" value="" style="editableCssRules=.*;html=1;shape=image;verticalLabelPosition=bottom;labelBackgroundColor=#ffffff;verticalAlign=top;aspect=fixed;imageAspect=0;image=data:image/svg+xml,PHN2ZyB4bWxucz0iaHR0cDovL3d3dy53My5vcmcvMjAwMC9zdmciIHhtbG5zOnY9Imh0dHBzOi8vdmVjdGEuaW8vbmFubyIgd2lkdGg9IjIwIiBoZWlnaHQ9IjIwIiB2aWV3Qm94PSIwIDAgMjAgMjAiIHN0eWxlPSJjb2xvci1zY2hlbWU6IGxpZ2h0IGRhcms7Ij4mI3hhOwk8c3R5bGUgdHlwZT0idGV4dC9jc3MiPi5zdDAgeyBmaWxsOiBsaWdodC1kYXJrKHJnYigyNTUsIDI1NSwgMjU1KSwgcmdiKDE4LCAxOCwgMTgpKTsgfSA8L3N0eWxlPiYjeGE7CTxwYXRoIGNsYXNzPSJzdDAiIGQ9Ik0xMy4zMyAwdjIuMzhoLTIuMTZWMEg4LjgzdjIuMzhINi42N1YwSDQuMjl2Mi4zOGEyIDIgMCAwIDAtMS45MSAxLjkxSDB2Mi4zOGgyLjM4djIuMTRIMHYyLjM4aDIuMzh2Mi4xNEgwdjIuMzhoMi4zOGEyIDIgMCAwIDAgMS45MSAxLjkxVjIwaDIuMzh2LTIuMzhoMi4xNlYyMGgyLjM0di0yLjM4aDIuMTZWMjBoMi4zOHYtMi4zOGEyIDIgMCAwIDAgMS45MS0xLjkxSDIwdi0yLjM4aC0yLjM4di0yLjE0SDIwVjguODFoLTIuMzhWNi42N0gyMFY0LjI5aC0yLjM4YTIgMiAwIDAgMC0xLjkxLTEuOTFWMHptMS41MyAxNS4yNEg1LjE0YS4zOC4zOCAwIDAgMS0uMzgtLjM4VjUuMTRhLjM4LjM4IDAgMCAxIC4zOC0uMzhoOS43MmEuMzguMzggMCAwIDEgLjM4LjM4djkuNzJhLjM4LjM4IDAgMCAxLS4zOC4zOHptLTIuMDctNi4xMmwtMy41IDQuODZ2LTMuNjNINy4yMmwzLjYxLTQuODF2My41OHoiLz4mI3hhOzwvc3ZnPg==;imageBackground=#00FF00;" vertex="1" parent="FhinJ58jHfH75TcgasUs-23">
          <mxGeometry x="36.72394581419332" y="30.78605604921394" width="23.43462481083181" height="23.43462481083181" as="geometry" />
        </mxCell>
        <mxCell id="FhinJ58jHfH75TcgasUs-26" value="Object Store (S3)" style="outlineConnect=0;dashed=0;verticalLabelPosition=bottom;verticalAlign=top;align=center;html=1;shape=mxgraph.aws3.s3;fillColor=#E05243;gradientColor=none;" vertex="1" parent="1">
          <mxGeometry x="500" y="1000" width="76.5" height="93" as="geometry" />
        </mxCell>
        <mxCell id="FhinJ58jHfH75TcgasUs-27" style="edgeStyle=orthogonalEdgeStyle;rounded=0;orthogonalLoop=1;jettySize=auto;html=1;exitX=0.67;exitY=1;exitDx=0;exitDy=0;exitPerimeter=0;entryX=0.5;entryY=0;entryDx=0;entryDy=0;entryPerimeter=0;" edge="1" parent="1" source="FhinJ58jHfH75TcgasUs-1" target="FhinJ58jHfH75TcgasUs-2">
          <mxGeometry relative="1" as="geometry" />
        </mxCell>
        <mxCell id="FhinJ58jHfH75TcgasUs-28" style="edgeStyle=orthogonalEdgeStyle;rounded=0;orthogonalLoop=1;jettySize=auto;html=1;exitX=0.5;exitY=1;exitDx=0;exitDy=0;exitPerimeter=0;entryX=0.5;entryY=0;entryDx=0;entryDy=0;entryPerimeter=0;" edge="1" parent="1" source="FhinJ58jHfH75TcgasUs-2" target="FhinJ58jHfH75TcgasUs-4">
          <mxGeometry relative="1" as="geometry" />
        </mxCell>
        <mxCell id="FhinJ58jHfH75TcgasUs-29" style="edgeStyle=orthogonalEdgeStyle;rounded=0;orthogonalLoop=1;jettySize=auto;html=1;exitX=0.995;exitY=0.63;exitDx=0;exitDy=0;exitPerimeter=0;entryX=0.5;entryY=0;entryDx=0;entryDy=0;entryPerimeter=0;" edge="1" parent="1" source="FhinJ58jHfH75TcgasUs-4" target="FhinJ58jHfH75TcgasUs-5">
          <mxGeometry relative="1" as="geometry" />
        </mxCell>
        <mxCell id="FhinJ58jHfH75TcgasUs-32" style="edgeStyle=orthogonalEdgeStyle;rounded=0;orthogonalLoop=1;jettySize=auto;html=1;exitX=0.9;exitY=0.2;exitDx=0;exitDy=0;exitPerimeter=0;entryX=0.995;entryY=0.63;entryDx=0;entryDy=0;entryPerimeter=0;" edge="1" parent="1" source="FhinJ58jHfH75TcgasUs-5" target="FhinJ58jHfH75TcgasUs-8">
          <mxGeometry relative="1" as="geometry" />
        </mxCell>
        <mxCell id="FhinJ58jHfH75TcgasUs-38" style="edgeStyle=orthogonalEdgeStyle;rounded=0;orthogonalLoop=1;jettySize=auto;html=1;exitX=0.5;exitY=0;exitDx=0;exitDy=0;exitPerimeter=0;entryX=0.995;entryY=0.63;entryDx=0;entryDy=0;entryPerimeter=0;" edge="1" parent="1" source="FhinJ58jHfH75TcgasUs-8" target="FhinJ58jHfH75TcgasUs-2">
          <mxGeometry relative="1" as="geometry" />
        </mxCell>
        <mxCell id="FhinJ58jHfH75TcgasUs-39" style="edgeStyle=orthogonalEdgeStyle;rounded=0;orthogonalLoop=1;jettySize=auto;html=1;exitX=0.995;exitY=0.63;exitDx=0;exitDy=0;exitPerimeter=0;entryX=0;entryY=0.5;entryDx=0;entryDy=0;entryPerimeter=0;" edge="1" parent="1" source="FhinJ58jHfH75TcgasUs-5" target="FhinJ58jHfH75TcgasUs-7">
          <mxGeometry relative="1" as="geometry" />
        </mxCell>
        <mxCell id="FhinJ58jHfH75TcgasUs-41" style="edgeStyle=orthogonalEdgeStyle;rounded=0;orthogonalLoop=1;jettySize=auto;html=1;exitX=1;exitY=0.51;exitDx=0;exitDy=0;exitPerimeter=0;" edge="1" parent="1" source="FhinJ58jHfH75TcgasUs-7">
          <mxGeometry relative="1" as="geometry">
            <mxPoint x="540" y="640" as="targetPoint" />
          </mxGeometry>
        </mxCell>
        <mxCell id="FhinJ58jHfH75TcgasUs-43" style="edgeStyle=orthogonalEdgeStyle;rounded=0;orthogonalLoop=1;jettySize=auto;html=1;exitX=0.995;exitY=0.63;exitDx=0;exitDy=0;exitPerimeter=0;entryX=0.5;entryY=0;entryDx=0;entryDy=0;entryPerimeter=0;" edge="1" parent="1" source="FhinJ58jHfH75TcgasUs-11" target="FhinJ58jHfH75TcgasUs-24">
          <mxGeometry relative="1" as="geometry" />
        </mxCell>
        <mxCell id="FhinJ58jHfH75TcgasUs-44" style="edgeStyle=orthogonalEdgeStyle;rounded=0;orthogonalLoop=1;jettySize=auto;html=1;exitX=0.72;exitY=0.99;exitDx=0;exitDy=0;exitPerimeter=0;entryX=0.5;entryY=0;entryDx=0;entryDy=0;entryPerimeter=0;" edge="1" parent="1" source="FhinJ58jHfH75TcgasUs-11" target="FhinJ58jHfH75TcgasUs-21">
          <mxGeometry relative="1" as="geometry">
            <Array as="points">
              <mxPoint x="642" y="719" />
            </Array>
          </mxGeometry>
        </mxCell>
        <mxCell id="FhinJ58jHfH75TcgasUs-45" style="edgeStyle=orthogonalEdgeStyle;rounded=0;orthogonalLoop=1;jettySize=auto;html=1;exitX=0.28;exitY=0.99;exitDx=0;exitDy=0;exitPerimeter=0;entryX=0.5;entryY=0;entryDx=0;entryDy=0;entryPerimeter=0;" edge="1" parent="1" source="FhinJ58jHfH75TcgasUs-11" target="FhinJ58jHfH75TcgasUs-18">
          <mxGeometry relative="1" as="geometry">
            <Array as="points">
              <mxPoint x="445" y="719" />
            </Array>
          </mxGeometry>
        </mxCell>
        <mxCell id="FhinJ58jHfH75TcgasUs-46" style="edgeStyle=orthogonalEdgeStyle;rounded=0;orthogonalLoop=1;jettySize=auto;html=1;exitX=0.005;exitY=0.63;exitDx=0;exitDy=0;exitPerimeter=0;entryX=0.5;entryY=0;entryDx=0;entryDy=0;entryPerimeter=0;" edge="1" parent="1" source="FhinJ58jHfH75TcgasUs-11" target="FhinJ58jHfH75TcgasUs-15">
          <mxGeometry relative="1" as="geometry" />
        </mxCell>
        <mxCell id="FhinJ58jHfH75TcgasUs-47" style="edgeStyle=orthogonalEdgeStyle;rounded=0;orthogonalLoop=1;jettySize=auto;html=1;exitX=0.5;exitY=1;exitDx=0;exitDy=0;exitPerimeter=0;entryX=1;entryY=0.5;entryDx=0;entryDy=0;entryPerimeter=0;" edge="1" parent="1" source="FhinJ58jHfH75TcgasUs-24" target="FhinJ58jHfH75TcgasUs-26">
          <mxGeometry relative="1" as="geometry" />
        </mxCell>
        <mxCell id="FhinJ58jHfH75TcgasUs-48" style="edgeStyle=orthogonalEdgeStyle;rounded=0;orthogonalLoop=1;jettySize=auto;html=1;exitX=0.5;exitY=1;exitDx=0;exitDy=0;exitPerimeter=0;entryX=1;entryY=0.21;entryDx=0;entryDy=0;entryPerimeter=0;" edge="1" parent="1" source="FhinJ58jHfH75TcgasUs-21" target="FhinJ58jHfH75TcgasUs-26">
          <mxGeometry relative="1" as="geometry" />
        </mxCell>
        <mxCell id="FhinJ58jHfH75TcgasUs-49" style="edgeStyle=orthogonalEdgeStyle;rounded=0;orthogonalLoop=1;jettySize=auto;html=1;exitX=0.5;exitY=1;exitDx=0;exitDy=0;exitPerimeter=0;entryX=0;entryY=0.21;entryDx=0;entryDy=0;entryPerimeter=0;" edge="1" parent="1" source="FhinJ58jHfH75TcgasUs-18" target="FhinJ58jHfH75TcgasUs-26">
          <mxGeometry relative="1" as="geometry" />
        </mxCell>
        <mxCell id="FhinJ58jHfH75TcgasUs-50" style="edgeStyle=orthogonalEdgeStyle;rounded=0;orthogonalLoop=1;jettySize=auto;html=1;exitX=0.5;exitY=1;exitDx=0;exitDy=0;exitPerimeter=0;entryX=0;entryY=0.5;entryDx=0;entryDy=0;entryPerimeter=0;" edge="1" parent="1" source="FhinJ58jHfH75TcgasUs-15" target="FhinJ58jHfH75TcgasUs-26">
          <mxGeometry relative="1" as="geometry" />
        </mxCell>
        <mxCell id="FhinJ58jHfH75TcgasUs-52" value="DLQ" style="verticalLabelPosition=bottom;html=1;verticalAlign=top;align=center;strokeColor=none;fillColor=#00BEF2;shape=mxgraph.azure.queue_generic;pointerEvents=1;" vertex="1" parent="1">
          <mxGeometry x="836.67" y="560" width="133.34" height="40" as="geometry" />
        </mxCell>
        <mxCell id="FhinJ58jHfH75TcgasUs-53" style="edgeStyle=orthogonalEdgeStyle;rounded=0;orthogonalLoop=1;jettySize=auto;html=1;exitX=0.9;exitY=0.2;exitDx=0;exitDy=0;exitPerimeter=0;entryX=0;entryY=0.5;entryDx=0;entryDy=0;entryPerimeter=0;" edge="1" parent="1" source="FhinJ58jHfH75TcgasUs-11" target="FhinJ58jHfH75TcgasUs-52">
          <mxGeometry relative="1" as="geometry">
            <Array as="points">
              <mxPoint x="800" y="656" />
              <mxPoint x="800" y="580" />
            </Array>
          </mxGeometry>
        </mxCell>
        <mxCell id="FhinJ58jHfH75TcgasUs-56" style="edgeStyle=orthogonalEdgeStyle;rounded=0;orthogonalLoop=1;jettySize=auto;html=1;exitX=1;exitY=0.51;exitDx=0;exitDy=0;exitPerimeter=0;entryX=0.9;entryY=0.2;entryDx=0;entryDy=0;entryPerimeter=0;" edge="1" parent="1" source="FhinJ58jHfH75TcgasUs-52" target="FhinJ58jHfH75TcgasUs-8">
          <mxGeometry relative="1" as="geometry">
            <Array as="points">
              <mxPoint x="990" y="580" />
              <mxPoint x="990" y="304" />
            </Array>
          </mxGeometry>
        </mxCell>
      </root>
    </mxGraphModel>
  </diagram>
</mxfile>
